<svg t="1633417498336" class="icon" viewBox="0 0 1024 1024" version="1.1" xmlns="http://www.w3.org/2000/svg" p-id="3918" width="200" height="200"><path d="M813.856 778.52c117.12 0 209.968 98.84 209.96 213.552a29.968 29.968 0 0 1-29.992 29.936H30A29.968 29.968 0 0 1 0 992.072c0-114.608 92.744-213.544 209.96-213.544h47.624c-41.224-49.744-68.08-111.744-74.24-179.616h-1.376c-66.16 0-119.976-53.72-119.976-119.752 0-66.024 53.816-119.744 119.976-119.744h1.376a326.312 326.312 0 0 1 32.848-115.984c-2.672 0.08-5.392 0.12-8.16 0.12-36.376 0-79.448-7.56-109.04-37.096C41.744 149.32 66.848 41.84 69.904 29.784a29.968 29.968 0 0 1 21.744-21.704c12.088-3.04 119.776-28.104 177.016 29.024 26.056 26 35.04 62.44 36.824 95.56 56.56-45.4 128.36-72.616 206.424-72.616 79.704 0 152.904 28.36 210 75.496 1.4-33.872 10.144-71.68 36.96-98.44 57.24-57.128 164.928-32.072 177.016-29.024a29.968 29.968 0 0 1 21.744 21.696c3.056 12.064 28.16 119.544-29.08 176.672-29.6 29.536-72.672 37.104-109.048 37.104-4.08 0-8.064-0.096-11.944-0.264a326.28 326.28 0 0 1 32.912 116.128h1.384c66.16 0 119.976 53.72 119.976 119.744 0 66.032-53.824 119.744-119.976 119.744h-1.384c-6.16 67.872-33.016 129.872-74.24 179.616h47.624z m28-359.232v119.744c33.072 0 59.992-26.856 59.992-59.872s-26.92-59.872-60-59.872zM181.968 539.032V419.288c-33.08 0-59.992 26.856-59.992 59.872s26.912 59.872 59.992 59.872zM801.288 79.44c-22.712 22.672-21.2 71.472-16.832 101.408 30.04 4.304 79.112 5.784 101.672-16.736 22.712-22.664 21.2-71.472 16.832-101.408-30.04-4.296-79.104-5.784-101.672 16.736zM541.904 121.6v28.256c0 115.552 94.192 209.56 209.968 209.56h28.32C766.312 234.72 666.84 135.44 541.904 121.6z m-59.984 0c-124.944 13.84-224.416 113.12-238.288 237.816h28.32c115.776 0 209.968-94 209.968-209.552V121.6z m-340.512 42.52c22.536 22.488 71.536 21.032 101.608 16.736 4.304-29.992 5.776-78.912-16.776-101.408-22.536-22.504-71.536-21.04-101.608-16.744-4.304 29.992-5.776 78.912 16.776 101.416z m512.824 518.64a29.896 29.896 0 0 1-2.32 42.28 209.76 209.76 0 0 1-140 53.48 209.752 209.752 0 0 1-140-53.48 29.896 29.896 0 0 1-2.32-42.272 30.04 30.04 0 0 1 42.36-2.32 149.776 149.776 0 0 0 99.96 38.2c36.912 0 72.416-13.568 99.968-38.2a30.04 30.04 0 0 1 42.352 2.32zM241.96 568.976c0 148.56 121.096 269.432 269.952 269.432 148.848 0 269.952-120.872 269.952-269.432v-149.68h-30c-104.328 0-195.04-59.392-239.952-146.064C466.992 359.896 376.288 419.28 271.952 419.28h-30v149.68zM62.976 962.136h897.864c-14.032-69.56-75.648-123.736-146.984-123.736H701.392a328.536 328.536 0 0 1-189.48 59.872 328.536 328.536 0 0 1-189.488-59.872H209.96c-71.328 0-132.952 54.184-146.984 123.736zM391.92 539.032a29.968 29.968 0 0 1-29.992-29.936 29.968 29.968 0 0 1 30-29.936c16.56 0 29.992 13.408 29.992 29.936a29.968 29.968 0 0 1-30 29.936z m239.976 0a29.968 29.968 0 0 1-29.992-29.936 29.968 29.968 0 0 1 30-29.936c16.56 0 29.992 13.408 29.992 29.936a29.968 29.968 0 0 1-30 29.936z" fill="#000000" p-id="3919"></path></svg>