<?xml version="1.0" standalone="no"?><!DOCTYPE svg PUBLIC "-//W3C//DTD SVG 1.1//EN" "http://www.w3.org/Graphics/SVG/1.1/DTD/svg11.dtd"><svg t="1633330439066" class="icon" viewBox="0 0 1024 1024" version="1.1" xmlns="http://www.w3.org/2000/svg" p-id="2525" xmlns:xlink="http://www.w3.org/1999/xlink" width="200" height="200"><defs><style type="text/css"></style></defs><path d="M485.04 70.24c-66.912 1.584-133.184 20.416-189.456 59.056-100.96 69.296-145.408 188.896-153.472 307.36l-88.72 137.376c-9.968 15.44 1.12 35.808 19.504 35.808h51.184v167.088a72.032 72.032 0 0 0 72.032 72.032H376.64v104.928h288.64V768.592c0-2.928 39.616-25.696 43.12-28.448 141.104-110.768 198.288-335.088 109.76-495.136C754.128 129.232 613.36 67.2 485.04 70.24z" fill="#84DBFF" p-id="2526"></path><path d="M84.72 574.016l88.72-137.376c8.048-118.448 52.512-238.048 153.472-307.36 54.736-37.568 118.928-56.288 183.968-58.752a387.36 387.36 0 0 0-25.84-0.304c-66.912 1.584-133.184 20.416-189.456 59.056-100.96 69.296-145.408 188.896-153.472 307.36l-88.72 137.376c-9.968 15.44 1.12 35.808 19.504 35.808h31.328c-18.384 0-29.472-20.368-19.504-35.808zM155.408 776.912V609.824H124.08v167.088a72.048 72.048 0 0 0 72.048 72.048h31.328a72.064 72.064 0 0 1-72.048-72.048zM376.64 848.944h31.328v104.928H376.64z" fill="#A9EBFF" p-id="2527"></path><path d="M665.28 961.888H376.64a8 8 0 0 1-8-8V856.96H196.112a80.128 80.128 0 0 1-80.048-80.032v-159.088H72.896c-11.616 0-21.856-6.08-27.408-16.288s-5.104-22.096 1.2-31.856l87.616-135.648c9.856-138.176 65.488-248.672 156.768-311.328 55.152-37.872 122.16-58.768 193.792-60.464 142.832-2.96 279.28 68.544 340.304 178.88 87.296 157.808 36.096 389.216-111.808 505.312-1.168 0.928-6.128 4-12.4 7.808-7.568 4.608-22.32 13.584-27.664 17.6v182.048a8.016 8.016 0 0 1-8.016 7.984z m-280.64-16h272.64V768.576c0-5.776 1.968-7.696 35.344-28.016 5.36-3.264 9.664-5.856 10.896-6.752 142.048-111.504 191.36-333.6 107.648-484.944C743.888 127.28 598.896 75.344 485.216 78.24c-68.512 1.616-132.528 21.552-185.104 57.648-118.224 81.152-144.736 223.616-150 301.296a8.048 8.048 0 0 1-1.264 3.808l-88.72 137.376a14.992 14.992 0 0 0-0.592 15.52 14.992 14.992 0 0 0 13.36 7.936h51.184a8 8 0 0 1 8 8v167.088a64.112 64.112 0 0 0 64.048 64.032H376.64a8 8 0 0 1 8 8v96.944z" fill="#63312D" p-id="2528"></path><path d="M932.704 244.992C868.672 129.232 727.904 67.2 599.584 70.24h-114.544c128.32-3.024 269.088 58.992 333.12 174.752 88.528 160.048 31.344 384.368-109.76 495.136-3.504 2.752-43.12 25.52-43.12 28.448v185.296h114.544V768.576c0-2.928 39.616-25.696 43.12-28.448 141.104-110.768 198.288-335.088 109.76-495.136z" fill="#52BADB" p-id="2529"></path><path d="M779.824 961.888H665.28a8 8 0 0 1-8-8V768.576c0-5.776 1.968-7.696 35.344-28.016 5.36-3.264 9.664-5.856 10.896-6.752 142.048-111.504 191.36-333.6 107.648-484.944C747.216 133.264 613.088 80.816 502.256 78.24h-17.216a8 8 0 0 1-0.192-16c6.368-0.144 12.752-0.144 19.072 0h95.664c142.912-3.376 279.088 68.544 340.128 178.88 87.296 157.808 36.08 389.216-111.824 505.312-1.168 0.928-6.128 4-12.4 7.808-7.568 4.608-22.32 13.584-27.664 17.6v182.048a8 8 0 0 1-8 8z m-106.544-16h98.544V768.576c0-5.776 1.968-7.696 35.344-28.016 5.36-3.264 9.664-5.856 10.896-6.752 142.048-111.504 191.376-333.6 107.664-484.944-65.6-118.592-205.056-170.72-317.456-170.736 93.536 26.752 173.936 85.344 216.896 162.992 87.296 157.808 36.096 389.216-111.808 505.312-1.168 0.928-6.128 4-12.4 7.808-7.568 4.608-22.32 13.584-27.664 17.6v174.048z" fill="#63312D" p-id="2530"></path><path d="M381.376 256.784h240.048v240.048H381.376z" fill="#FAF5F5" p-id="2531"></path><path d="M621.44 504.848H381.376a8 8 0 0 1-8-8V256.784a8 8 0 0 1 8-8H621.44a8 8 0 0 1 8 8v240.048a8 8 0 0 1-8 8.016z m-232.064-16H613.44V264.784H389.376v224.064z" fill="#63312D" p-id="2532"></path><path d="M445.264 320.688h112.256v112.256h-112.256z" fill="#F9DD9D" p-id="2533"></path><path d="M557.52 440.944h-112.256a8 8 0 0 1-8-8v-112.272a8 8 0 0 1 8-8h112.256a8 8 0 0 1 8 8v112.272c0 4.432-3.568 8-8 8z m-104.256-16h96.256v-96.272h-96.256v96.272zM409.84 218.016h35.248v16h-35.248z" fill="#63312D" p-id="2534"></path><path d="M419.472 172.8h16v49.008h-16zM458.448 218.016h35.248v16h-35.248z" fill="#63312D" p-id="2535"></path><path d="M468.08 172.8h16v49.008h-16zM507.056 218.016h35.264v16h-35.264z" fill="#63312D" p-id="2536"></path><path d="M516.672 172.8h16v49.008h-16zM555.648 218.016h35.248v16h-35.248z" fill="#63312D" p-id="2537"></path><path d="M565.28 172.8h16v49.008h-16zM409.84 517.92h35.248v16h-35.248z" fill="#63312D" p-id="2538"></path><path d="M419.472 530.128h16v49.008h-16zM458.448 517.92h35.248v16h-35.248z" fill="#63312D" p-id="2539"></path><path d="M468.08 530.128h16v49.008h-16zM507.056 517.92h35.264v16h-35.264z" fill="#63312D" p-id="2540"></path><path d="M516.672 530.128h16v49.008h-16zM555.648 517.92h35.248v16h-35.248z" fill="#63312D" p-id="2541"></path><path d="M565.28 530.128h16v49.008h-16zM642.32 285.44h16v35.248h-16z" fill="#63312D" p-id="2542"></path><path d="M654.544 295.056h49.008v16h-49.008zM642.32 334.032h16v35.248h-16z" fill="#63312D" p-id="2543"></path><path d="M654.544 343.664h49.008v16h-49.008zM642.32 382.64h16v35.248h-16z" fill="#63312D" p-id="2544"></path><path d="M654.544 392.272h49.008v16h-49.008zM642.32 431.248h16v35.248h-16z" fill="#63312D" p-id="2545"></path><path d="M654.544 440.88h49.008v16h-49.008zM342.432 285.44h16v35.248h-16z" fill="#63312D" p-id="2546"></path><path d="M297.2 295.056h49.008v16h-49.008zM342.432 334.032h16v35.248h-16z" fill="#63312D" p-id="2547"></path><path d="M297.2 343.664h49.008v16h-49.008zM342.432 382.64h16v35.248h-16z" fill="#63312D" p-id="2548"></path><path d="M297.2 392.272h49.008v16h-49.008zM342.432 431.248h16v35.248h-16z" fill="#63312D" p-id="2549"></path><path d="M297.2 440.88h49.008v16h-49.008z" fill="#63312D" p-id="2550"></path></svg>