<svg t="1633418089810" class="icon" viewBox="0 0 1024 1024" version="1.1" xmlns="http://www.w3.org/2000/svg" p-id="6566" width="200" height="200"><path d="M320 96c-158.816 0-288 129.184-288 288v32c0 52.8 43.2 96 96 96 24.64 0 47.04-9.6 64-24.96 16.96 15.36 39.36 24.96 64 24.96h32c24.64 0 47.04-9.6 64-24.96 16.96 15.36 39.36 24.96 64 24.96h32c24.64 0 47.04-9.6 64-24.96 16.96 15.36 39.36 24.96 64 24.96h32c24.64 0 47.04-9.6 64-24.96 16.96 15.36 39.36 24.96 64 24.96h32c24.64 0 47.04-9.6 64-24.96 16.96 15.36 39.36 24.96 64 24.96 52.8 0 96-43.2 96-96v-32c0-158.816-129.184-288-288-288H320z m0 64h384c89.536 0 166.816 52.928 202.624 129.056C903.104 288.672 899.616 288 896 288c-19.52 0-37.44 5.76-52.48 15.68A111.68 111.68 0 0 0 752 256c-24.32 0-46.72 8-64.96 21.12A112.448 112.448 0 0 0 592 224c-31.36 0-59.52 13.12-80 33.92A111.936 111.936 0 0 0 432 224c-40 0-75.2 21.44-95.04 53.12C318.72 264 296.32 256 272 256c-37.76 0-71.36 18.88-91.52 47.68C165.44 293.76 147.52 288 128 288c-3.616 0-7.104 0.64-10.624 1.056C153.216 212.928 230.464 160 320 160z m112 128c26.56 0 48 21.44 48 48V416c0 17.6-14.4 32-32 32h-32c-17.6 0-32-14.4-32-32v-80c0-26.56 21.44-48 48-48z m160 0c26.56 0 48 21.44 48 48V416c0 17.6-14.4 32-32 32h-32c-17.6 0-32-14.4-32-32v-80c0-26.56 21.44-48 48-48z m-320 32c26.56 0 48 21.44 48 48V416c0 17.6-14.4 32-32 32H256c-17.6 0-32-14.4-32-32v-48c0-26.56 21.44-48 48-48z m480 0c26.56 0 48 21.44 48 48V416c0 17.6-14.4 32-32 32h-32c-17.6 0-32-14.4-32-32v-48c0-26.56 21.44-48 48-48zM128 352c17.6 0 32 14.4 32 32v32c0 17.6-14.4 32-32 32s-32-14.4-32-32v-32c0-17.6 14.4-32 32-32z m768 0c17.6 0 32 14.4 32 32v32c0 17.6-14.4 32-32 32s-32-14.4-32-32v-32c0-17.6 14.4-32 32-32zM128 576c-52.8 0-96 43.2-96 96v32c0 123.488 100.512 224 224 224h512c123.488 0 224-100.512 224-224v-32c0-52.8-43.2-96-96-96-24.64 0-47.04 9.6-64 24.96-16.96-15.36-39.36-24.96-64-24.96h-32c-24.64 0-47.04 9.6-64 24.96-16.96-15.36-39.36-24.96-64-24.96h-32c-24.64 0-47.04 9.6-64 24.96-16.96-15.36-39.36-24.96-64-24.96h-32c-24.64 0-47.04 9.6-64 24.96-16.96-15.36-39.36-24.96-64-24.96H256c-24.64 0-47.04 9.6-64 24.96-16.96-15.36-39.36-24.96-64-24.96z m0 64c17.6 0 32 14.4 32 32s-14.4 32-32 32-32-14.4-32-32 14.4-32 32-32z m128 0h32c17.6 0 32 14.4 32 32v32c0 17.6-14.4 32-32 32-35.2 0-64-28.8-64-64 0-17.6 14.4-32 32-32z m160 0h32c17.6 0 32 14.4 32 32v32c0 17.6-14.4 32-32 32h-32c-17.6 0-32-14.4-32-32v-32c0-17.6 14.4-32 32-32z m160 0h32c17.6 0 32 14.4 32 32v32c0 17.6-14.4 32-32 32h-32c-17.6 0-32-14.4-32-32v-32c0-17.6 14.4-32 32-32z m160 0h32c17.6 0 32 14.4 32 32 0 35.2-28.8 64-64 64-17.6 0-32-14.4-32-32v-32c0-17.6 14.4-32 32-32z m160 0c17.6 0 32 14.4 32 32s-14.4 32-32 32-32-14.4-32-32 14.4-32 32-32zM185.6 748.16C209.28 779.52 246.08 800 288 800c24.64 0 47.04-9.6 64-24.96 16.96 15.36 39.36 24.96 64 24.96h32c24.64 0 47.04-9.6 64-24.96 16.96 15.36 39.36 24.96 64 24.96h32c24.64 0 47.04-9.6 64-24.96 16.96 15.36 39.36 24.96 64 24.96 41.92 0 78.72-20.48 102.4-51.84 16 12.48 35.84 19.84 57.6 19.84 6.656 0 13.216-0.704 19.52-2.016A160.224 160.224 0 0 1 768 864H256a160.224 160.224 0 0 1-147.52-98.016c6.304 1.312 12.864 2.016 19.52 2.016 21.76 0 41.6-7.36 57.6-19.84z" p-id="6567" fill="#000000"></path></svg>