<svg t="1633417342241" class="icon" viewBox="0 0 1024 1024" version="1.1" xmlns="http://www.w3.org/2000/svg" p-id="2520" width="200" height="200"><path d="M795.306667 529.066667c-3.413333 0-3.413333 0 0 0-10.24 0-17.066667-10.24-17.066667-17.066667 3.413333-37.546667 20.48-102.4 68.266667-102.4 10.24 0 17.066667 6.826667 17.066666 17.066667s-10.24 17.066667-17.066666 17.066666c-23.893333 0-34.133333 54.613333-34.133334 68.266667-3.413333 10.24-10.24 17.066667-17.066666 17.066667z" fill="#000000" p-id="2521"></path><path d="M897.706667 1024c-44.373333 0-300.373333-54.613333-354.986667-105.813333-37.546667-37.546667-27.306667-136.533333-13.653333-245.76 3.413333-13.653333 3.413333-27.306667 6.826666-37.546667-44.373333 6.826667-71.68 34.133333-98.986666 64.853333-23.893333 27.306667-51.2 54.613333-88.746667 54.613334-95.573333 0-320.853333-126.293333-324.266667-358.4C23.893333 307.2 61.44 218.453333 133.12 146.773333 225.28 51.2 354.986667 0 491.52 0c256 0 457.386667 163.84 457.386667 375.466667v3.413333l-13.653334 61.44 61.44 78.506667c3.413333 3.413333 3.413333 10.24 3.413334 13.653333 0 6.826667-3.413333 10.24-10.24 10.24-20.48 10.24-75.093333 40.96-75.093334 68.266667 0 30.72 51.2 34.133333 51.2 34.133333 6.826667 0 10.24 3.413333 13.653334 10.24s3.413333 13.653333-3.413334 17.066667l-44.373333 61.44 13.653333 23.893333c0 3.413333 3.413333 3.413333 3.413334 6.826667v68.266666c0 23.893333 6.826667 143.36-27.306667 177.493334-10.24 10.24-20.48 13.653333-23.893333 13.653333z m-327.68-392.533333c0 13.653333-3.413333 27.306667-6.826667 44.373333-10.24 64.853333-27.306667 184.32 3.413333 215.04 44.373333 44.373333 286.72 98.986667 327.68 98.986667 13.653333-6.826667 20.48-78.506667 17.066667-153.6v-64.853334l-13.653333-30.72c-3.413333-6.826667-3.413333-13.653333 0-17.066666l34.133333-47.786667c-27.306667-6.826667-54.613333-27.306667-54.613333-61.44 0-44.373333 47.786667-75.093333 75.093333-92.16l-54.613333-68.266667c-3.413333-3.413333-3.413333-10.24-3.413334-13.653333l17.066667-64.853333c0-191.146667-187.733333-337.92-423.253333-337.92C361.813333 37.546667 238.933333 85.333333 157.013333 170.666667c-64.853333 64.853333-98.986667 146.773333-98.986666 225.28 0 208.213333 208.213333 324.266667 290.133333 324.266666 20.48 0 37.546667-17.066667 61.44-44.373333 30.72-34.133333 71.68-75.093333 143.36-75.093333s98.986667 20.48 122.88 34.133333c17.066667 10.24 27.306667 17.066667 47.786667 17.066667 51.2 0 88.746667-58.026667 88.746666-61.44 3.413333-6.826667 13.653333-10.24 23.893334-6.826667 6.826667 3.413333 10.24 13.653333 6.826666 23.893333-3.413333 3.413333-44.373333 75.093333-116.053333 75.093334-30.72 0-47.786667-10.24-64.853333-23.893334-20.48-10.24-40.96-23.893333-92.16-27.306666z" fill="#000000" p-id="2522"></path><path d="M931.84 836.266667c-3.413333 0-3.413333 0 0 0-3.413333 0-88.746667-17.066667-170.666667-17.066667-23.893333 0-40.96-6.826667-58.026666-23.893333-37.546667-44.373333-30.72-126.293333-27.306667-129.706667 0-10.24 10.24-17.066667 20.48-13.653333 10.24 0 17.066667 10.24 13.653333 20.48-3.413333 20.48-3.413333 78.506667 20.48 105.813333 6.826667 10.24 17.066667 13.653333 30.72 13.653333 85.333333 0 170.666667 17.066667 174.08 17.066667 10.24 3.413333 13.653333 10.24 13.653334 20.48-3.413333 0-10.24 6.826667-17.066667 6.826667zM624.64 535.893333c-61.44 0-146.773333-17.066667-177.493333-23.893333-10.24-3.413333-13.653333-10.24-13.653334-20.48 3.413333-10.24 10.24-13.653333 20.48-13.653333 102.4 23.893333 208.213333 30.72 218.453334 17.066666 0-37.546667 40.96-81.92 78.506666-119.466666 17.066667-17.066667 40.96-40.96 40.96-51.2 0-17.066667-37.546667-47.786667-58.026666-68.266667-6.826667-6.826667-17.066667-13.653333-23.893334-20.48-6.826667-6.826667-6.826667-17.066667 0-23.893333s17.066667-6.826667 23.893334 0l20.48 20.48c34.133333 30.72 68.266667 61.44 68.266666 95.573333 0 20.48-17.066667 37.546667-51.2 75.093333-27.306667 30.72-68.266667 71.68-68.266666 95.573334 0 10.24-3.413333 20.48-13.653334 27.306666-6.826667 6.826667-34.133333 10.24-64.853333 10.24z" fill="#000000" p-id="2523"></path></svg>