<svg t="1633418226169" class="icon" viewBox="0 0 1024 1024" version="1.1" xmlns="http://www.w3.org/2000/svg" p-id="18494" width="200" height="200"><path d="M959.774 300.408c-24.492-181.02-237.54-273.454-387.304-156.21-36.124 28.858-84.756 28.858-121.172-0.176-149.496-117.06-362.586-24.584-387.072 156.386C25.496 328.766 0 374.088 0 422.048v120c0-142.92 185.134-205.76 272-89.074 60.548-81.332 179.618-81.11 240 0 60.548-81.332 179.618-81.11 240 0 86.842-116.652 272-51.692 272 91.29v-120c0-47.958-25.496-95.498-64.226-123.856z" fill="#000000" p-id="18495"></path><path d="M226.904 492.308c-9.238-13.862-25.624-27.148-40.158-33.26C127.304 434.088 62 478.21 62 542.048v180c0 16.552 13.448 30 30 30h120c16.552 0 30-13.448 30-30v-180c0-18.392-5.592-35.476-15.096-49.74zM302 722.048v180c0 16.552 13.448 30 30 30h120c16.552 0 30-13.448 30-30v-180c0-118.88-180-118.976-180 0zM946.904 492.308c-9.238-13.862-25.624-27.148-40.158-33.26-59.442-24.96-124.746 19.16-124.746 82.998v180c0 16.552 13.448 30 30 30h120c16.552 0 30-13.448 30-30v-140.622-2.29-37.088c0-18.39-5.592-35.474-15.096-49.738zM706.904 492.308c-9.238-13.862-25.624-27.148-40.158-33.26-59.442-24.96-124.746 19.16-124.746 82.998v180c0 16.552 13.448 30 30 30h120c16.552 0 30-13.448 30-30v-180c0-18.39-5.592-35.474-15.096-49.738z" fill="#000000" p-id="18496"></path></svg>