<svg t="1633418056346" class="icon" viewBox="0 0 1024 1024" version="1.1" xmlns="http://www.w3.org/2000/svg" p-id="4967" width="200" height="200"><path d="M368.672152 990.474442c-6.90527 0-12.593829-5.503341-12.780071-12.447497-0.528026-19.664875-5.972015-34.792411-15.745612-43.747363-7.184633-6.583952-16.591887-9.581216-27.961842-8.92016-75.302033 5.990434-123.162064-2.334161-150.630672-26.188452-15.621792-13.56597-24.25645-32.106232-25.663496-55.106062-0.008186-0.140193-0.01535-0.280386-0.019443-0.420579-0.64059-22.707165 6.818289-34.552957 12.264325-43.201941 3.425006-5.438872 5.713119-9.072633 6.148024-14.866592-0.11768-9.435906-1.945305-13.234419-20.300348-20.73116-0.275269-0.112564-0.545422-0.234337-0.811482-0.36532-15.22168-7.490601-23.564695-19.703761-22.889313-33.507138 0.317225-6.473435 2.674922-12.635785 6.692423-18.030655-6.749728-3.993964-11.467169-8.800433-14.257725-14.483876-2.563382-5.222955-4.63967-13.668301 0.027629-24.249287 0.983397-2.229784 2.582825-4.131087 4.609994-5.481851 8.788154-5.856381 17.877159-15.165398 12.857842-35.690874C81.213161 617.977683 61.268924 601.337701 57.622884 580.927859c-2.849908-15.95539 4.992711-31.91078 23.310915-47.421033 44.769646-38.014802 72.985268-77.432557 83.905992-117.205399-12.039197-35.795251-8.797363-78.527494 9.258874-120.877021C237.429039 138.287553 343.935772 48.376801 482.115877 35.388998c0.106424-0.010233 0.211824-0.01842 0.317225-0.025583 113.853048-7.852852 210.700793 9.813506 287.85501 52.505841 77.519538 42.893926 136.957255 111.960954 176.662559 205.28341 0.106424 0.249687 0.204661 0.502443 0.294712 0.75827 21.654182 61.479213 25.517163 125.84722 11.479449 191.316304-12.44852 58.0583-39.257096 115.783003-77.526701 166.93501-0.040932 0.055259-0.082888 0.109494-0.124843 0.163729-52.03512 67.260893-66.310242 140.892891-43.639916 225.104851 1.836835 6.821359-2.205225 13.839193-9.026584 15.676028-6.824429 1.834788-13.839193-2.205225-15.676028-9.026584-24.535813-91.143836-8.373715-174.352957 48.044226-247.322875 77.724199-103.933117 100.484575-225.62469 62.475913-333.966211C847.412654 124.924197 703.823352 45.779649 484.351801 60.874439 322.654073 76.144214 239.26792 202.108091 197.777971 305.107953c-0.032746 0.081864-0.066515 0.163729-0.101307 0.24457-21.822005 51.101865-14.056134 88.290859-7.483438 105.911168 0.900509 2.415003 1.050935 5.045923 0.430812 7.546883-11.481496 46.323025-42.820248 91.477434-93.1444 134.208655-7.478322 6.332219-16.081257 15.522532-14.672164 23.410176 0.909719 5.091972 7.821129 18.679431 52.252061 34.850739 3.654226 1.330298 6.505158 4.249791 7.747451 7.93574 11.83249 35.113729-1.833765 56.009641-17.168008 67.860551 0.013303 0.036839 0.027629 0.072655 0.044002 0.106424 0.267083 0.542352 3.107781 5.430686 20.493753 9.733689 5.438872 1.345648 9.369392 6.076392 9.69685 11.668761 0.327458 5.594415-3.02387 10.749832-8.269337 12.721743-7.906064 2.970658-11.607362 7.623631-11.768021 10.916631-0.148379 3.022847 2.936889 6.417153 8.272407 9.122775 18.060331 7.414877 35.57217 17.063631 35.762505 44.50461 0.002047 0.283456-0.005117 0.566912-0.021489 0.850367-0.750083 12.580526-5.697769 20.439518-10.064216 27.372418-4.678556 7.43125-8.722662 13.853519-8.346085 28.636201 1.020236 16.010649 6.54609 28.16241 16.889669 37.144992 21.654182 18.804275 64.820308 25.346271 131.955334 19.99131 0.081864-0.00614 0.162706-0.01228 0.24457-0.017396 18.343787-1.110287 34.56319 4.281513 46.902216 15.588023 15.005762 13.751189 23.317055 35.161824 24.035416 61.921281 0.189312 7.061836-5.381567 12.94073-12.443403 13.130042C368.904443 990.473419 368.787786 990.474442 368.672152 990.474442zM693.214736 854.696036c-0.097214 0-0.192382-0.001023-0.289596-0.00307-7.061836-0.156566-12.661368-6.008854-12.504802-13.071713 2.058892-92.839455-11.106965-173.646875-39.135322-240.232386-19.267832-4.329609-36.495192-21.157879-51.331086-50.17475-16.745383 3.706415-33.399691 5.918803-49.941436 6.635117 10.654664 21.00643 29.449729 38.811957 56.011688 53.024657 1.720178 0.919952 3.206018 2.221598 4.345981 3.804652 27.771507 38.570457 43.789319 112.195292 48.971341 225.080292 0.323365 7.05672-5.134951 13.039991-12.19167 13.364379-7.060813 0.350994-13.041014-5.133927-13.365402-12.190647-4.76963-103.913675-19.083637-174.190251-42.561351-208.986755-34.501792-19.085684-57.788148-44.078914-69.237921-74.325799-8.585539-0.515746-17.128099-1.441838-25.635867-2.781346-31.934317 5.847172-61.295018 3.606131-85.038792-6.513344-22.326495-9.516748-39.570227-26.043143-48.554856-46.535873-9.207709-21.001313-9.174963-43.697221-1.071402-64.227814-24.301476-7.522324-44.372603-19.99438-59.993372-37.257555-2.538823 0.327458-5.201465-0.101307-7.633864-1.39579-34.407648-18.303878-53.706179-39.135322-59.001789-63.682391-5.735631-26.592658 4.872984-56.338123 33.385365-93.551676 25.452695-47.90608 59.957557-77.496002 111.524003-95.579869 32.340569-28.740578 74.53967-45.194318 113.676016-44.23855 68.808132-14.368242 120.281457-11.382235 189.078333 10.920724 58.170864 12.359492 96.30744 36.371372 126.97695 80.029708 41.491996 29.852912 69.956282 65.674769 86.989213 109.450784 16.535605 42.49893 21.982664 91.971691 16.652262 151.228283-0.892323 15.587-7.139607 28.596292-18.073634 37.634132-3.075035 2.540869-6.487761 4.750187-10.211573 6.618744-15.437597 30.888498-33.039487 53.587476-53.438073 68.812225-0.267083 1.732457-0.896416 3.438309-1.912559 5.004991-22.925129 35.329646-45.76123 58.036811-69.813019 69.415976-20.778232 9.829879-42.974767 11.32493-66.193585 4.493338 16.427134 58.010205 23.914666 123.914194 22.300912 196.72243C705.842335 849.15381 700.145589 854.696036 693.214736 854.696036zM673.772942 614.393042c0.806365 0.199545 1.604544 0.483001 2.38635 0.851391 37.152155 17.528212 68.326155 9.219989 100.380198-28.157293-22.570042 4.65195-47.40466 2.496867-74.186629-6.475482-1.153266-0.385786-2.214435-0.919952-3.170203-1.574868-10.505261 10.140964-20.816095 16.96437-31.003108 20.531616C670.117692 604.445482 671.981133 609.381911 673.772942 614.393042zM615.337041 544.473599c8.761548 15.863293 21.116947 31.946596 35.364439 32.441876 0.212848 0.007163 0.433882 0.011256 0.657986 0.011256 10.093892 0 30.386054-7.900947 60.721967-55.666834-10.762111-0.630357-21.529339-1.912559-32.302707-3.848655C658.225851 528.827247 636.715955 537.855878 615.337041 544.473599zM717.315644 558.491871c52.752458 15.281031 92.780103-1.727341 124.32454-53.134151-6.004761 0.180102-12.367679-0.110517-19.045775-0.88209-26.559912 9.765411-53.501518 15.389502-80.604806 16.854876C733.612819 535.63121 725.399763 548.009122 717.315644 558.491871zM651.913075 238.918461c2.092661 0 4.213975 0.514723 6.175653 1.598404 6.182816 3.416819 8.42488 11.199063 5.009084 17.381879-24.339338 44.048215-63.386656 76.836993-116.058272 97.456612-0.727571 0.284479-1.479701 0.502443-2.24718 0.649799-58.089 11.168364-106.670461 31.218002-144.393621 59.592236-0.035816 0.026606-0.071631 0.054235-0.107447 0.080841-25.937742 19.084661-35.624359 49.562812-24.103978 75.839269 11.463076 26.145473 45.736671 49.805336 107.552551 37.779442 1.497097-0.290619 3.03308-0.312108 4.538363-0.062422 59.056024 9.810437 120.734782-2.459005 183.324282-36.468586 2.619664-1.422396 5.65479-1.885953 8.577353-1.310855 45.7643 9.006118 91.63707 4.960988 136.345318-12.022825 1.99954-0.759293 4.154623-1.00591 6.275937-0.716314 20.646226 2.822278 37.041638 0.225127 46.165436-7.315616 5.485945-4.535293 8.378831-10.921747 8.839319-19.527752 0.00921-0.155543 0.020466-0.311085 0.033769-0.466628 9.959839-110.197798-20.155039-186.154747-94.774527-239.041258-1.223874-0.867764-2.286066-1.943258-3.137457-3.179412-27.303856-39.634696-60.084447-60.3546-113.14799-71.516824-0.448208-0.094144-0.890276-0.212848-1.325182-0.354064-64.874543-21.112853-113.124454-23.854291-178.021509-10.114358-1.022283 0.215918-2.066055 0.309038-3.109828 0.26913-33.866319-1.218758-70.89363 13.471826-99.081623 39.297005-1.306762 1.197268-2.847861 2.110057-4.52506 2.680039-47.267537 16.063861-77.219709 41.520649-100.153024 85.11861-0.342808 0.652869-0.741897 1.274016-1.192152 1.857301-23.737634 30.776957-33.323966 54.78986-29.30749 73.408917 2.587941 11.996219 11.0558 23.208585 25.717731 33.955346 1.049912-1.512447 2.444679-2.819209 4.148483-3.794419 6.131651-3.50994 13.945617-1.384533 17.455557 4.747117 14.57495 25.463951 36.663014 41.851177 67.422575 49.980321 4.152577-5.325285 8.952906-10.339486 14.372336-14.944364-21.872147-10.410094-38.262442-24.565489-48.852638-42.227754-3.632737-6.058996-1.666966-13.914918 4.39203-17.547655 6.057973-3.63376 13.915941-1.666966 17.547655 4.39203 9.890254 16.493649 27.183106 29.226648 51.410903 37.855166 5.335519-3.39226 10.830673-6.64842 16.487509-9.770528-8.390088-17.35425-20.789489-34.501792-36.956703-51.087539-4.931313-5.058203-4.826935-13.156648 0.231267-18.08796 5.059226-4.930289 13.157671-4.826935 18.08796 0.231267 17.984606 18.450211 31.905664 37.734416 41.497113 57.456596 12.366655-5.643534 25.38004-10.717086 39.019689-15.213493 0.594541-2.726088 1.224898-5.447059 1.89107-8.165983-20.267603 3.643993-36.434817 0.725524-46.570665-8.65717-5.349845-4.951779-13.552667-16.254196-8.392134-36.308951 8.708336-33.489742 22.284539-57.821917 40.544415-72.779583-4.055362-15.46011-0.280386-36.141128 34.065863-54.187133 1.429559-8.80248 5.232165-16.062837 11.355629-21.654182 10.256598-9.366322 25.832342-12.974499 47.605228-11.029194 7.036253 0.62831 12.231579 6.841825 11.603269 13.878079-0.627287 7.037277-6.850012 12.243859-13.878079 11.603269-13.637602-1.216711-23.612791 0.35918-28.079522 4.439102-0.904603 0.825808-3.656273 3.339048-3.669576 11.056823-0.008186 4.977361-2.904143 9.498328-7.42204 11.587919-17.700127 8.18645-24.239054 15.253402-26.352181 20.513196 2.585895-0.831948 5.236258-1.533936 7.948019-2.105964 6.909363-1.459235 13.699 2.961448 15.157211 9.873882 1.459235 6.912433-2.962471 13.697977-9.873882 15.157211-25.645077 5.412266-43.385113 28.326139-54.235229 70.053496-0.961908 3.741207-1.577938 8.739035 1.00284 11.128455 4.28049 3.962242 17.702174 5.195326 37.479613-0.948605 19.203364-56.559157 54.024427-111.399159 103.900372-163.506934 4.883217-5.104251 12.980639-5.281283 18.085914-0.396019 5.103228 4.88424 5.28026 12.981662 0.396019 18.08489-53.197596 55.580876-88.196715 114.056686-104.233969 174.08792 9.226129-2.367931 18.698874-4.499477 28.41619-6.390547 46.420239-18.405185 80.706113-47.194882 101.920274-85.584214C643.039987 241.302765 647.408481 238.918461 651.913075 238.918461zM462.719108 518.245238c-11.94096 0-24.012903-1.058099-36.20048-3.177366-6.959505-1.210571-11.620665-7.833409-10.410094-14.793938 1.210571-6.960529 7.833409-11.625782 14.793938-10.410094 31.375591 5.456269 61.905932 2.87856 91.031273-7.6574-0.74599-0.559748-1.481747-1.137916-2.210341-1.736551-5.458315-4.485151-6.247284-12.545734-1.763157-18.004049 4.485151-5.458315 12.546757-6.247284 18.004049-1.763157 12.779048 10.499122 27.752064 9.350972 35.939537 2.790556 7.532557-6.037507 8.674567-15.310707 3.213181-26.109658-3.188622-6.304589-0.662079-13.998829 5.641487-17.187451 6.302543-3.187599 13.998829-0.663102 17.187451 5.641487 0.290619 0.576121 0.571005 1.150196 0.840134 1.727341 17.523095-3.148713 29.361725-13.32754 37.167504-31.895431 2.739391-6.512321 10.234085-9.570983 16.749476-6.834662 4.176113 1.755993 6.931876 5.469572 7.65126 9.625218 22.744004-2.534729 40.317241-12.948917 53.494355-31.621185 4.071735-5.77247 12.0525-7.14984 17.825994-3.076058 2.186805 1.543146 3.742231 3.647063 4.611018 5.980201 5.706979-5.650697 7.676843-10.776438 7.393387-14.219863-0.349971-4.240581-4.022617-6.506181-6.179746-7.479345-7.565303-3.41068-21.440311-2.723018-37.71088 9.43079-5.65786 4.228301-13.674441 3.067872-17.902742-2.593058-4.227278-5.659907-3.066849-13.675464 2.593058-17.902742 14.573927-10.885931 30.287817-16.486486 44.583404-16.312524 0.776689-1.081635 1.735527-2.059915 2.87242-2.885723 28.947286-21.058618 26.045189-40.906665 21.344121-54.002938-2.387373-6.649444 1.068332-13.974269 7.717775-16.360619 6.64842-2.387373 13.974269 1.069355 16.359596 7.717775 7.209192 20.084431 8.857738 48.625464-20.345374 75.200726 7.033184 5.888104 11.417027 14.030551 12.164041 23.088858 0.124843 1.523703 0.162706 3.284813 0.026606 5.238304 3.074012 0.478907 6.014994 1.194198 8.800433 2.127454 7.999185-12.765745 11.276834-24.894993 10.004865-36.948517-0.741897-7.024997 4.353145-13.3214 11.378142-14.062274 7.016811-0.737804 13.322423 4.353145 14.062274 11.379165 1.90335 18.043958-2.933819 36.248575-14.383592 54.180993 5.823636 7.467065 8.995885 16.923438 8.699126 27.535123-0.104377 3.723811-0.654916 7.482415-1.641383 11.199063 21.269419 4.611018 37.681204 16.376992 48.858778 35.057447 3.62762 6.062066 1.653663 13.916964-4.409426 17.544585-6.063089 3.625574-13.917988 1.653663-17.544585-4.409426-8.457626-14.134929-21.0095-22.054295-38.376029-24.212448-0.604774-0.075725-1.195222-0.192382-1.76725-0.345877-11.701506 12.593829-30.087249 21.588691-54.423517 21.803585-3.856841 0.047072-7.339152-1.647523-9.709129-4.332678-10.8143 11.874445-22.61916 19.436678-35.285644 22.573111-7.832386 1.938142-15.891945 2.191922-24.12956 0.76748-1.084705 2.230808-2.826372 4.170996-5.140067 5.497201-34.71157 19.900236-64.851007 22.262026-89.650833 7.043417-5.929036 2.222621-12.247952 3.281743-18.640546 3.173273-1.061169 1.180895-2.361791 2.182712-3.873214 2.925632C523.460518 511.193635 493.540068 518.245238 462.719108 518.245238zM597.097632 473.411123c12.360516 3.851725 26.840298 1.840928 43.791365-6.072299-0.757247-0.457418-1.515516-0.929162-2.275833-1.412163-5.956665-3.796466-7.709589-11.703553-3.913123-17.661242 3.797489-5.958712 11.704576-7.709589 17.662265-3.913123 13.09218 8.341992 24.52251 11.143805 34.957163 8.562003 12.993942-3.216251 25.477254-15.185864 37.103036-35.577287 3.498684-6.136767 11.308557-8.277524 17.448394-4.776793 6.136767 3.498684 8.275477 11.310603 4.776793 17.447371-0.692778 1.214664-1.38965 2.405793-2.093684 3.576455 23.99346-2.441609 37.244252-17.397229 37.637202-31.428803 0.306992-10.94426-6.961552-17.704221-19.940145-18.546402-1.172709-0.075725-2.297322-0.306992-3.355421-0.673335-3.994987 4.88424-9.447163 9.914814-16.838503 14.842033-5.861498 3.90596-13.775748 2.337231-17.704221-3.498684-19.256576 20.172435-44.555775 30.377868-75.422783 30.377868-0.014326 0-0.027629 0-0.041956 0-11.07422 15.078417-26.128077 24.455995-44.972261 27.978215C603.468736 460.132702 601.167321 467.221144 597.097632 473.411123zM410.603147 490.330468c-2.799766 0-5.618974-0.914836-7.976672-2.798742-5.519714-4.409426-6.418176-12.458753-2.00875-17.977443 2.937912-3.676739 5.985318-7.066953 9.139148-10.168594-6.92062-3.378957-12.238742-8.120958-15.904225-14.198374-3.648087-6.049786-1.701758-13.911848 4.348028-17.559934 6.04774-3.647063 13.910824-1.702782 17.559934 4.348028 3.202948 5.310959 12.260232 7.15598 19.293415 7.768941 1.060145 0.092098 2.078335 0.311085 3.042289 0.64059 11.747555-4.7727 24.506137-6.662747 38.22458-5.643534 8.682753-12.862959 23.804149-24.357757 49.968042-22.517853 17.84032-24.570605 40.036855-39.011502 66.092277-42.977837 42.544979-13.354146 47.792493-36.140105 48.022737-52.166103 0.102331-7.064906 5.942339-12.745279 12.974499-12.606109 7.062859 0.101307 12.707416 5.909593 12.606109 12.973476-0.367367 25.647123-12.291954 59.745732-67.008136 76.538187-0.644683 0.197498-1.302669 0.343831-1.969864 0.437975-21.420869 3.015683-39.020712 15.563464-53.807487 38.359656-2.762927 4.260024-7.783267 6.480598-12.797467 5.661953-23.200398-3.795443-31.243585 6.29231-35.663244 15.506159-2.448772 5.104251-7.960299 7.995091-13.551644 7.098675-24.478508-3.90903-44.297902 4.093225-60.581774 24.473391C418.078399 488.683968 414.357658 490.330468 410.603147 490.330468zM847.360466 422.952918c-2.301416 0-4.629437-0.620124-6.729262-1.922792-6.003737-3.722788-7.852852-11.608386-4.129041-17.612123 2.972705-4.79419 11.000542-21.612227-10.528797-36.729529-4.626367-3.247974-6.571672-9.146311-4.787026-14.509459 8.268314-24.831548-4.939499-52.374858-15.232936-57.852616-6.236028-3.318582-8.600889-11.06501-5.281283-17.301038 3.318582-6.236028 11.06501-8.600889 17.301038-5.282307 11.181667 5.950526 21.175275 19.286252 26.734898 35.670407 4.926196 14.520715 5.969968 29.838585 3.101641 44.008306 22.544459 20.339234 21.973454 46.86947 10.432607 65.478294C855.822185 420.804998 851.639932 422.952918 847.360466 422.952918zM300.704155 352.706017c-0.339738 0-0.679475-0.013303-1.023306-0.040932-7.042393-0.557702-12.300141-6.718005-11.742439-13.760398 1.655709-20.915355 8.909927-34.681894 21.559015-40.915875 0.659009-0.324388 1.328251-0.626263 2.006703-0.905626 2.261507-26.499537 16.383132-44.474934 40.241516-51.43137 11.689227-30.889521 36.746926-49.696866 74.591859-55.94722 6.974855-1.147126 13.553691 3.566222 14.70491 10.535961 1.151219 6.970762-3.566222 13.553691-10.535961 14.70491-30.625508 5.058203-49.152467 19.825534-56.642045 45.144176-1.369184 4.629437-5.228071 8.093329-9.977235 8.956999-16.304338 2.965541-24.472368 11.200086-26.579355 27.186176 10.058077 2.534729 21.453614 7.965415 34.322713 16.324804 5.924943 3.848655 7.608282 11.770068 3.759627 17.695011-3.848655 5.922896-11.772115 7.607258-17.695011 3.759627-25.388227-16.490579-34.655288-14.177907-36.890188-13.074783-3.824095 1.88493-6.508227 9.169847-7.364735 19.987217C312.912198 347.621209 307.310619 352.704994 300.704155 352.706017zM699.763896 292.778136c-4.830005 0-9.804297-0.773619-14.891152-2.332115-6.453992-1.977028-10.259668-8.629541-8.695033-15.195074 6.066159-25.456788-0.600681-45.37749-16.984836-50.750871-21.262256-6.972808-53.585429 11.493775-74.212212 60.291155-2.750647 6.507204-10.255575 9.55154-16.762779 6.801916-6.506181-2.750647-9.55154-10.255575-6.800893-16.761756 27.884071-65.964364 74.364685-84.933391 105.749486-74.638931 21.815865 7.154957 40.038902 30.181393 36.360116 66.61621 4.205788-0.895393 8.060583-3.341095 11.960403-7.450692 4.862751-5.123694 12.95915-5.334495 18.083867-0.471744 5.123694 4.862751 5.335519 12.960173 0.471744 18.082844C724.100164 287.443641 712.43959 292.777113 699.763896 292.778136zM729.005894 225.367841c-4.310166 0-8.516977-2.178619-10.92891-6.126534-16.318664-26.718525-34.800597-40.183188-56.499805-41.161469-7.05672-0.318248-12.520151-6.297426-12.202926-13.354146s6.332219-12.525268 13.354146-12.201903c30.416753 1.37123 56.384172 19.332301 77.181847 53.382814 3.681856 6.02932 1.779529 13.901615-4.248767 17.58347C733.580073 224.762043 731.278657 225.367841 729.005894 225.367841z" p-id="4968" fill="#000000"></path></svg>